<?xml version="1.0" encoding="UTF-8"?>
<svg id="Layer_1" data-name="Layer 1" xmlns="http://www.w3.org/2000/svg" viewBox="0 0 720.09 467.43">
  <defs>
    <style>
      .cls-1 {
        fill: #949b9c;
        stroke-width: 0px;
      }
    </style>
  </defs>
  <path class="cls-1" d="m202.08,31.27l112.72.6v30.63h34.39v-30.61h112.83v30.63h34.39v-30.63h112.61v30.63h34.39V19.88c0-.6-.07-1.18-.21-1.76l-2.86-11.8c-.82-3.37-3.81-5.72-7.27-5.72h-13.71c-3.46,0-6.45,2.36-7.27,5.72l-2.86,11.8c-.13.58-.21,1.18-.21,1.76v3.87h-112.61v-3.87c0-.6-.07-1.18-.21-1.76l-2.86-11.8c-.82-3.37-3.81-5.72-7.27-5.72h-13.71c-3.46,0-6.45,2.36-7.27,5.72l-2.86,11.8c-.13.58-.21,1.18-.21,1.76v3.87h-112.83v-3.87c0-.6-.07-1.18-.21-1.76l-2.86-11.8c-.82-3.37-3.81-5.72-7.27-5.72h-13.71c-3.46,0-6.45,2.36-7.27,5.72l-2.86,11.8c-.13.58-.21,1.18-.21,1.76v3.87l-112.72-.6v-3.87c0-.6-.07-1.18-.21-1.76l-2.86-11.8c-.82-3.37-3.81-5.72-7.27-5.72h-13.71c-3.46,0-6.45,2.36-7.27,5.72l-2.86,11.8c-.13.58-.21,1.18-.21,1.76v42.62h34.39v-30.63h0Z"/>
  <rect class="cls-1" x="354.39" y="213.38" width="101.03" height="254.05"/>
  <path class="cls-1" d="m128.46,73.6c-23.95,0-47.68,5.78-68.48,17.65C21.35,113.24,1.76,149.58,1.72,190.84c0,56.62,33.17,89.79,98.94,108.66l61.76,17.73c24.03,6.86,35.45,15.45,35.45,29.17,0,21.17-18.87,30.89-50.9,30.89-46.9,0-90.93-18.31-121.25-38.89L0,434.48c97.37,53.74,307.9,54.36,309.96-94.94,2.43-87.53-88.09-106.83-168.7-129.25-20.59-6.3-28.55-12.58-28.59-25.17-.02-8.88,7.39-16.03,16.25-16.01h370.99v298.31h109.8V169.12h110.38v-95.52H128.46Z"/>
</svg>